<svg xmlns="http://www.w3.org/2000/svg" xmlns:xlink="http://www.w3.org/1999/xlink" width="500" zoomAndPan="magnify" viewBox="0 0 375 374.999991" height="500" preserveAspectRatio="xMidYMid meet" version="1.0"><defs><clipPath id="347148ffa5"><path d="M 154 43.914062 L 157 43.914062 L 157 190.261719 L 154 190.261719 Z M 154 43.914062 " clip-rule="nonzero"/></clipPath><clipPath id="59955b6983"><path d="M 156 43.914062 L 311.785156 43.914062 L 311.785156 190.261719 L 156 190.261719 Z M 156 43.914062 " clip-rule="nonzero"/></clipPath><clipPath id="20713e6064"><path d="M 0 43.914062 L 155 43.914062 L 155 190.261719 L 0 190.261719 Z M 0 43.914062 " clip-rule="nonzero"/></clipPath><clipPath id="da4c7800cf"><path d="M 217 158.621094 L 221 158.621094 L 221 304.96875 L 217 304.96875 Z M 217 158.621094 " clip-rule="nonzero"/></clipPath><clipPath id="502dd96972"><path d="M 220 158.621094 L 375 158.621094 L 375 304.96875 L 220 304.96875 Z M 220 158.621094 " clip-rule="nonzero"/></clipPath><clipPath id="b079e24f10"><path d="M 63.652344 158.621094 L 218 158.621094 L 218 304.96875 L 63.652344 304.96875 Z M 63.652344 158.621094 " clip-rule="nonzero"/></clipPath></defs><rect x="-37.5" width="450" fill="#ffffff" y="-37.499999" height="449.999989" fill-opacity="1"/><g clip-path="url(#347148ffa5)"><path fill="#000000" d="M 154.433594 43.480469 L 154.246094 43.664062 L 154.246094 191.710938 L 156.800781 191.710938 L 156.800781 43.480469 Z M 154.433594 43.480469 " fill-opacity="1" fill-rule="nonzero"/></g><g clip-path="url(#59955b6983)"><path fill="#000000" d="M 311.339844 43.480469 L 156.800781 43.480469 L 156.800781 191.710938 L 156.90625 191.710938 Z M 311.339844 43.480469 " fill-opacity="1" fill-rule="nonzero"/></g><g clip-path="url(#20713e6064)"><path fill="#000000" d="M 0 191.710938 L 154.246094 191.710938 L 154.246094 43.664062 Z M 0 191.710938 " fill-opacity="1" fill-rule="nonzero"/></g><g clip-path="url(#da4c7800cf)"><path fill="#000000" d="M 218.085938 158.1875 L 217.898438 158.371094 L 217.898438 306.417969 L 220.453125 306.417969 L 220.453125 158.1875 Z M 218.085938 158.1875 " fill-opacity="1" fill-rule="nonzero"/></g><g clip-path="url(#502dd96972)"><path fill="#000000" d="M 374.992188 158.1875 L 220.453125 158.1875 L 220.453125 306.417969 L 220.558594 306.417969 Z M 374.992188 158.1875 " fill-opacity="1" fill-rule="nonzero"/></g><g clip-path="url(#b079e24f10)"><path fill="#000000" d="M 63.652344 306.417969 L 217.898438 306.417969 L 217.898438 158.371094 Z M 63.652344 306.417969 " fill-opacity="1" fill-rule="nonzero"/></g></svg>