<svg xmlns="http://www.w3.org/2000/svg" xmlns:xlink="http://www.w3.org/1999/xlink" width="272" zoomAndPan="magnify" viewBox="0 0 204 44.999999" height="60" preserveAspectRatio="xMidYMid meet" version="1.0"><defs><g/><clipPath id="87146843a0"><path d="M 64 7.828125 L 66 7.828125 L 66 24.214844 L 64 24.214844 Z M 64 7.828125 " clip-rule="nonzero"/></clipPath><clipPath id="786305f815"><path d="M 65 7.828125 L 82.425781 7.828125 L 82.425781 24.214844 L 65 24.214844 Z M 65 7.828125 " clip-rule="nonzero"/></clipPath><clipPath id="4e2634c49f"><path d="M 47.519531 7.828125 L 65 7.828125 L 65 24.214844 L 47.519531 24.214844 Z M 47.519531 7.828125 " clip-rule="nonzero"/></clipPath><clipPath id="3b66524cb4"><path d="M 71 20.671875 L 73 20.671875 L 73 37.054688 L 71 37.054688 Z M 71 20.671875 " clip-rule="nonzero"/></clipPath><clipPath id="25f8451b71"><path d="M 72 20.671875 L 89.550781 20.671875 L 89.550781 37.054688 L 72 37.054688 Z M 72 20.671875 " clip-rule="nonzero"/></clipPath><clipPath id="a500064c82"><path d="M 54.644531 20.671875 L 72 20.671875 L 72 37.054688 L 54.644531 37.054688 Z M 54.644531 20.671875 " clip-rule="nonzero"/></clipPath></defs><g fill="#000000" fill-opacity="1"><g transform="translate(93.147704, 25.864673)"><g><path d="M 0.15625 0 L 1.925781 -10.105469 L 6.964844 -10.105469 C 7.785156 -10.105469 8.476562 -9.96875 9.039062 -9.691406 C 9.601562 -9.410156 10.003906 -9.019531 10.25 -8.515625 C 10.496094 -8.011719 10.554688 -7.417969 10.433594 -6.738281 C 10.339844 -6.191406 10.144531 -5.703125 9.84375 -5.28125 C 9.546875 -4.855469 9.179688 -4.507812 8.742188 -4.238281 C 8.300781 -3.972656 7.820312 -3.792969 7.289062 -3.707031 L 7.078125 -3.679688 L 9.484375 0 L 6.46875 0 L 4.460938 -3.480469 L 3.496094 -3.480469 L 2.886719 0 Z M 3.808594 -5.222656 L 5.589844 -5.222656 C 6.121094 -5.222656 6.585938 -5.351562 6.984375 -5.613281 C 7.386719 -5.871094 7.625 -6.234375 7.699219 -6.695312 C 7.785156 -7.167969 7.675781 -7.53125 7.375 -7.785156 C 7.074219 -8.039062 6.652344 -8.167969 6.117188 -8.167969 L 4.332031 -8.167969 Z M 3.808594 -5.222656 "/></g></g></g><g fill="#000000" fill-opacity="1"><g transform="translate(103.535776, 25.864673)"><g><path d="M 0.15625 0 L 1.925781 -10.105469 L 4.671875 -10.105469 L 2.886719 0 Z M 0.15625 0 "/></g></g></g><g fill="#000000" fill-opacity="1"><g transform="translate(107.852347, 25.864673)"><g><path d="M 2.5625 0 L 1.246094 -10.105469 L 4.046875 -10.105469 L 4.984375 -2.039062 L 5.109375 -2.039062 L 8.863281 -10.105469 L 11.691406 -10.105469 L 6.824219 0 Z M 2.5625 0 "/></g></g></g><g fill="#000000" fill-opacity="1"><g transform="translate(118.509322, 25.864673)"><g><path d="M -0.539062 0 L 4.472656 -10.105469 L 8.523438 -10.105469 L 9.964844 0 L 7.132812 0 L 6.878906 -1.683594 L 3.144531 -1.683594 L 2.308594 0 Z M 4.007812 -3.625 L 6.695312 -3.625 L 6.15625 -7.785156 L 6.03125 -7.785156 Z M 4.007812 -3.625 "/></g></g></g><g fill="#000000" fill-opacity="1"><g transform="translate(129.222907, 25.864673)"><g><path d="M 0.15625 0 L 1.925781 -10.105469 L 4.671875 -10.105469 L 3.296875 -2.335938 L 7.84375 -2.335938 L 7.433594 0 Z M 0.15625 0 "/></g></g></g><g fill="#000000" fill-opacity="1"><g transform="translate(137.61545, 25.864673)"><g/></g></g><g fill="#000000" fill-opacity="1"><g transform="translate(141.054552, 25.864673)"><g><path d="M 0.15625 0 L 1.925781 -10.105469 L 4.671875 -10.105469 L 2.886719 0 Z M 0.15625 0 "/></g></g></g><g fill="#000000" fill-opacity="1"><g transform="translate(145.371124, 25.864673)"><g><path d="M 2.773438 0 L 4.160156 -7.871094 L 0.921875 -7.871094 L 1.316406 -10.105469 L 10.519531 -10.105469 L 10.121094 -7.871094 L 6.894531 -7.871094 L 5.507812 0 Z M 2.773438 0 "/></g></g></g><g clip-path="url(#87146843a0)"><path fill="#000000" d="M 64.808594 7.78125 L 64.789062 7.800781 L 64.789062 24.375 L 65.074219 24.375 L 65.074219 7.78125 Z M 64.808594 7.78125 " fill-opacity="1" fill-rule="nonzero"/></g><g clip-path="url(#786305f815)"><path fill="#000000" d="M 82.375 7.78125 L 65.074219 7.78125 L 65.074219 24.375 L 65.085938 24.375 Z M 82.375 7.78125 " fill-opacity="1" fill-rule="nonzero"/></g><g clip-path="url(#4e2634c49f)"><path fill="#000000" d="M 47.519531 24.375 L 64.789062 24.375 L 64.789062 7.800781 Z M 47.519531 24.375 " fill-opacity="1" fill-rule="nonzero"/></g><g clip-path="url(#3b66524cb4)"><path fill="#000000" d="M 71.933594 20.625 L 71.914062 20.644531 L 71.914062 37.21875 L 72.199219 37.21875 L 72.199219 20.625 Z M 71.933594 20.625 " fill-opacity="1" fill-rule="nonzero"/></g><g clip-path="url(#25f8451b71)"><path fill="#000000" d="M 89.5 20.625 L 72.199219 20.625 L 72.199219 37.21875 L 72.210938 37.21875 Z M 89.5 20.625 " fill-opacity="1" fill-rule="nonzero"/></g><g clip-path="url(#a500064c82)"><path fill="#000000" d="M 54.644531 37.21875 L 71.914062 37.21875 L 71.914062 20.644531 Z M 54.644531 37.21875 " fill-opacity="1" fill-rule="nonzero"/></g></svg>