<svg xmlns="http://www.w3.org/2000/svg" xmlns:xlink="http://www.w3.org/1999/xlink" width="272" zoomAndPan="magnify" viewBox="0 0 204 44.999999" height="60" preserveAspectRatio="xMidYMid meet" version="1.0"><defs><g/><clipPath id="62672e58ae"><path d="M 64 7.859375 L 66 7.859375 L 66 24.210938 L 64 24.210938 Z M 64 7.859375 " clip-rule="nonzero"/></clipPath><clipPath id="e323342f05"><path d="M 65 7.859375 L 82.449219 7.859375 L 82.449219 24.210938 L 65 24.210938 Z M 65 7.859375 " clip-rule="nonzero"/></clipPath><clipPath id="a9b6dd6f81"><path d="M 47.617188 7.859375 L 65 7.859375 L 65 24.210938 L 47.617188 24.210938 Z M 47.617188 7.859375 " clip-rule="nonzero"/></clipPath><clipPath id="052b59a826"><path d="M 71 20.675781 L 73 20.675781 L 73 37.023438 L 71 37.023438 Z M 71 20.675781 " clip-rule="nonzero"/></clipPath><clipPath id="a3cfc06acb"><path d="M 72 20.675781 L 89.558594 20.675781 L 89.558594 37.023438 L 72 37.023438 Z M 72 20.675781 " clip-rule="nonzero"/></clipPath><clipPath id="ab131f85d9"><path d="M 54.726562 20.675781 L 72 20.675781 L 72 37.023438 L 54.726562 37.023438 Z M 54.726562 20.675781 " clip-rule="nonzero"/></clipPath></defs><g fill="#ffffff" fill-opacity="1"><g transform="translate(93.147961, 25.857617)"><g><path d="M 0.15625 0 L 1.921875 -10.085938 L 6.949219 -10.085938 C 7.769531 -10.085938 8.460938 -9.945312 9.019531 -9.667969 C 9.578125 -9.390625 9.984375 -9 10.226562 -8.496094 C 10.472656 -7.992188 10.535156 -7.402344 10.410156 -6.722656 C 10.316406 -6.179688 10.121094 -5.691406 9.824219 -5.269531 C 9.527344 -4.84375 9.160156 -4.5 8.722656 -4.230469 C 8.285156 -3.960938 7.800781 -3.785156 7.273438 -3.699219 L 7.0625 -3.671875 L 9.464844 0 L 6.457031 0 L 4.449219 -3.476562 L 3.488281 -3.476562 L 2.882812 0 Z M 3.800781 -5.210938 L 5.578125 -5.210938 C 6.105469 -5.210938 6.570312 -5.34375 6.972656 -5.601562 C 7.371094 -5.859375 7.609375 -6.21875 7.683594 -6.683594 C 7.769531 -7.152344 7.660156 -7.515625 7.359375 -7.769531 C 7.058594 -8.023438 6.640625 -8.152344 6.101562 -8.152344 L 4.324219 -8.152344 Z M 3.800781 -5.210938 "/></g></g></g><g fill="#ffffff" fill-opacity="1"><g transform="translate(103.514248, 25.857617)"><g><path d="M 0.15625 0 L 1.921875 -10.085938 L 4.660156 -10.085938 L 2.882812 0 Z M 0.15625 0 "/></g></g></g><g fill="#ffffff" fill-opacity="1"><g transform="translate(107.821767, 25.857617)"><g><path d="M 2.558594 0 L 1.242188 -10.085938 L 4.039062 -10.085938 L 4.972656 -2.035156 L 5.097656 -2.035156 L 8.84375 -10.085938 L 11.667969 -10.085938 L 6.808594 0 Z M 2.558594 0 "/></g></g></g><g fill="#ffffff" fill-opacity="1"><g transform="translate(118.456393, 25.857617)"><g><path d="M -0.535156 0 L 4.464844 -10.085938 L 8.503906 -10.085938 L 9.945312 0 L 7.121094 0 L 6.867188 -1.679688 L 3.136719 -1.679688 L 2.300781 0 Z M 3.996094 -3.617188 L 6.683594 -3.617188 L 6.144531 -7.769531 L 6.019531 -7.769531 Z M 3.996094 -3.617188 "/></g></g></g><g fill="#ffffff" fill-opacity="1"><g transform="translate(129.147511, 25.857617)"><g><path d="M 0.15625 0 L 1.921875 -10.085938 L 4.660156 -10.085938 L 3.292969 -2.332031 L 7.824219 -2.332031 L 7.417969 0 Z M 0.15625 0 "/></g></g></g><g fill="#ffffff" fill-opacity="1"><g transform="translate(137.522454, 25.857617)"><g/></g></g><g fill="#ffffff" fill-opacity="1"><g transform="translate(140.954345, 25.857617)"><g><path d="M 0.15625 0 L 1.921875 -10.085938 L 4.660156 -10.085938 L 2.882812 0 Z M 0.15625 0 "/></g></g></g><g fill="#ffffff" fill-opacity="1"><g transform="translate(145.261864, 25.857617)"><g><path d="M 2.769531 0 L 4.152344 -7.855469 L 0.917969 -7.855469 L 1.3125 -10.085938 L 10.496094 -10.085938 L 10.101562 -7.855469 L 6.878906 -7.855469 L 5.496094 0 Z M 2.769531 0 "/></g></g></g><g clip-path="url(#62672e58ae)"><path fill="#ffffff" d="M 64.867188 7.8125 L 64.847656 7.832031 L 64.847656 24.371094 L 65.132812 24.371094 L 65.132812 7.8125 Z M 64.867188 7.8125 " fill-opacity="1" fill-rule="nonzero"/></g><g clip-path="url(#e323342f05)"><path fill="#ffffff" d="M 82.398438 7.8125 L 65.132812 7.8125 L 65.132812 24.371094 L 65.144531 24.371094 Z M 82.398438 7.8125 " fill-opacity="1" fill-rule="nonzero"/></g><g clip-path="url(#a9b6dd6f81)"><path fill="#ffffff" d="M 47.617188 24.371094 L 64.847656 24.371094 L 64.847656 7.832031 Z M 47.617188 24.371094 " fill-opacity="1" fill-rule="nonzero"/></g><g clip-path="url(#052b59a826)"><path fill="#ffffff" d="M 71.980469 20.628906 L 71.957031 20.648438 L 71.957031 37.1875 L 72.246094 37.1875 L 72.246094 20.628906 Z M 71.980469 20.628906 " fill-opacity="1" fill-rule="nonzero"/></g><g clip-path="url(#a3cfc06acb)"><path fill="#ffffff" d="M 89.507812 20.628906 L 72.246094 20.628906 L 72.246094 37.1875 L 72.257812 37.1875 Z M 89.507812 20.628906 " fill-opacity="1" fill-rule="nonzero"/></g><g clip-path="url(#ab131f85d9)"><path fill="#ffffff" d="M 54.726562 37.1875 L 71.957031 37.1875 L 71.957031 20.648438 Z M 54.726562 37.1875 " fill-opacity="1" fill-rule="nonzero"/></g></svg>